<svg xmlns="http://www.w3.org/2000/svg" width="760" height="380" viewBox="0 0 760 380" font-family="system-ui, -apple-system, 'Segoe UI', Roboto, sans-serif" role="img" aria-label="Aggregation error vs the exact weighted average">
<rect width="760" height="380" fill="#ffffff"/>
<text x="16.0" y="26.0" font-size="15" fill="#0b0b0b" text-anchor="start" font-weight="600">Aggregation error vs the exact weighted average</text>
<text x="16.0" y="46.0" font-size="12" fill="#52514e" text-anchor="start" font-weight="400">Relative Frobenius error over 96 modules on the trained adapters. Lower is better.</text>
<rect x="64.0" y="57.0" width="10" height="10" rx="2" fill="#2a78d6"/>
<text x="79.0" y="66.0" font-size="12" fill="#52514e" text-anchor="start" font-weight="400">Naive per-factor average</text>
<rect x="262.0" y="57.0" width="10" height="10" rx="2" fill="#eb6834"/>
<text x="277.0" y="66.0" font-size="12" fill="#52514e" text-anchor="start" font-weight="400">Exact SVD (rank 16)</text>
<line x1="64" x2="744" y1="336.0" y2="336.0" stroke="#e1e0d9"/>
<text x="56.0" y="340.0" font-size="11" fill="#898781" text-anchor="end" font-weight="400">0.00</text>
<line x1="64" x2="744" y1="250.7" y2="250.7" stroke="#e1e0d9"/>
<text x="56.0" y="254.7" font-size="11" fill="#898781" text-anchor="end" font-weight="400">0.20</text>
<line x1="64" x2="744" y1="165.3" y2="165.3" stroke="#e1e0d9"/>
<text x="56.0" y="169.3" font-size="11" fill="#898781" text-anchor="end" font-weight="400">0.40</text>
<line x1="64" x2="744" y1="80.0" y2="80.0" stroke="#e1e0d9"/>
<text x="56.0" y="84.0" font-size="11" fill="#898781" text-anchor="end" font-weight="400">0.60</text>
<text transform="translate(14 208.0) rotate(-90)" font-size="11" fill="#898781" text-anchor="middle">relative error</text>
<path d="M205.0,336.0 V199.8 Q205.0,195.8 209.0,195.8 H229.0 Q233.0,195.8 233.0,199.8 V336.0 Z" fill="#2a78d6"><title>web · Naive per-factor average: 0.33</title></path>
<path d="M235.0,336.0 V267.0 Q235.0,263.0 239.0,263.0 H259.0 Q263.0,263.0 263.0,267.0 V336.0 Z" fill="#eb6834"><title>web · Exact SVD (rank 16): 0.17</title></path>
<text x="234.0" y="354.0" font-size="12" fill="#52514e" text-anchor="middle" font-weight="400">web</text>
<path d="M545.0,336.0 V84.9 Q545.0,80.9 549.0,80.9 H569.0 Q573.0,80.9 573.0,84.9 V336.0 Z" fill="#2a78d6"><title>scientific · Naive per-factor average: 0.60</title></path>
<path d="M575.0,336.0 V221.5 Q575.0,217.5 579.0,217.5 H599.0 Q603.0,217.5 603.0,221.5 V336.0 Z" fill="#eb6834"><title>scientific · Exact SVD (rank 16): 0.28</title></path>
<text x="574.0" y="354.0" font-size="12" fill="#52514e" text-anchor="middle" font-weight="400">scientific</text>
<line x1="64" x2="744" y1="336.0" y2="336.0" stroke="#c3c2b7"/>
</svg>
